<mxfile host="Electron" modified="2023-04-26T11:21:43.848Z" agent="Mozilla/5.0 (Windows NT 10.0; Win64; x64) AppleWebKit/537.36 (KHTML, like Gecko) draw.io/21.2.1 Chrome/112.0.5615.87 Electron/24.1.2 Safari/537.36" etag="kPpc5AHEYNDeEZaB7XGp" version="21.2.1" type="device">
  <diagram name="Page-1" id="16vWiy-wB-ud1axXoYQZ">
    <mxGraphModel dx="1728" dy="1152" grid="0" gridSize="10" guides="1" tooltips="1" connect="1" arrows="1" fold="1" page="1" pageScale="1" pageWidth="827" pageHeight="1169" math="0" shadow="0">
      <root>
        <mxCell id="0" />
        <mxCell id="1" parent="0" />
        <mxCell id="XuTa8PD4pBFg-ae1TVW1-6" value="Criar equipe" style="shape=umlFrame;whiteSpace=wrap;html=1;pointerEvents=0;recursiveResize=0;container=1;collapsible=0;width=160;fontStyle=1;align=left;spacing=15;" parent="1" vertex="1">
          <mxGeometry x="98" y="88" width="1400" height="1200" as="geometry" />
        </mxCell>
        <mxCell id="RNL18w_joaWgRKOxXDmb-1" value="Usuário" style="swimlane;whiteSpace=wrap;spacing=5;swimlaneFillColor=#FFF2CC;fillColor=#FFF2CC;" parent="XuTa8PD4pBFg-ae1TVW1-6" vertex="1">
          <mxGeometry x="100" y="100" width="400" height="1000" as="geometry">
            <mxRectangle x="164.5" y="128" width="90" height="30" as="alternateBounds" />
          </mxGeometry>
        </mxCell>
        <mxCell id="RNL18w_joaWgRKOxXDmb-24" style="edgeStyle=orthogonalEdgeStyle;rounded=0;orthogonalLoop=1;jettySize=auto;html=1;exitX=0.5;exitY=1;exitDx=0;exitDy=0;endArrow=open;endFill=0;endSize=8;" parent="RNL18w_joaWgRKOxXDmb-1" source="RNL18w_joaWgRKOxXDmb-3" target="RNL18w_joaWgRKOxXDmb-23" edge="1">
          <mxGeometry relative="1" as="geometry" />
        </mxCell>
        <mxCell id="RNL18w_joaWgRKOxXDmb-3" value="Informar um nome para a equipe" style="strokeColor=default;whiteSpace=wrap;rounded=1;glass=0;spacing=7;" parent="RNL18w_joaWgRKOxXDmb-1" vertex="1">
          <mxGeometry x="130.00000000000003" y="132" width="140" height="60" as="geometry" />
        </mxCell>
        <mxCell id="RNL18w_joaWgRKOxXDmb-57" style="edgeStyle=orthogonalEdgeStyle;rounded=0;orthogonalLoop=1;jettySize=auto;html=1;exitX=0.5;exitY=1;exitDx=0;exitDy=0;entryX=0.5;entryY=0;entryDx=0;entryDy=0;endSize=8;endArrow=open;endFill=0;" parent="RNL18w_joaWgRKOxXDmb-1" source="RNL18w_joaWgRKOxXDmb-23" target="RNL18w_joaWgRKOxXDmb-56" edge="1">
          <mxGeometry relative="1" as="geometry" />
        </mxCell>
        <mxCell id="RNL18w_joaWgRKOxXDmb-23" value="Informar o nome de cada integrante da equipe" style="strokeColor=default;whiteSpace=wrap;rounded=1;glass=0;spacing=4;" parent="RNL18w_joaWgRKOxXDmb-1" vertex="1">
          <mxGeometry x="130.00000000000003" y="238" width="140" height="60" as="geometry" />
        </mxCell>
        <mxCell id="RNL18w_joaWgRKOxXDmb-56" value="Solicitar a criação da equipe" style="strokeColor=default;whiteSpace=wrap;rounded=1;glass=0;spacing=4;" parent="RNL18w_joaWgRKOxXDmb-1" vertex="1">
          <mxGeometry x="130.00000000000003" y="344" width="140" height="60" as="geometry" />
        </mxCell>
        <mxCell id="RNL18w_joaWgRKOxXDmb-11" value="Front-end" style="swimlane;whiteSpace=wrap;spacing=5;swimlaneFillColor=#FFCCFF;fillColor=#FFCCFF;" parent="XuTa8PD4pBFg-ae1TVW1-6" vertex="1">
          <mxGeometry x="500" y="100" width="400" height="1000" as="geometry">
            <mxRectangle x="164.5" y="128" width="90" height="30" as="alternateBounds" />
          </mxGeometry>
        </mxCell>
        <mxCell id="RNL18w_joaWgRKOxXDmb-62" style="edgeStyle=orthogonalEdgeStyle;rounded=0;orthogonalLoop=1;jettySize=auto;html=1;exitX=0.5;exitY=1;exitDx=0;exitDy=0;entryX=0.5;entryY=0;entryDx=0;entryDy=0;endArrow=open;endFill=0;endSize=8;" parent="RNL18w_joaWgRKOxXDmb-11" source="RNL18w_joaWgRKOxXDmb-53" target="RNL18w_joaWgRKOxXDmb-60" edge="1">
          <mxGeometry relative="1" as="geometry" />
        </mxCell>
        <mxCell id="RNL18w_joaWgRKOxXDmb-53" value="Verificar o número de integrantes da equipe" style="strokeColor=default;whiteSpace=wrap;rounded=1;glass=0;spacing=3;" parent="RNL18w_joaWgRKOxXDmb-11" vertex="1">
          <mxGeometry x="130" y="344" width="140" height="60" as="geometry" />
        </mxCell>
        <mxCell id="RNL18w_joaWgRKOxXDmb-66" style="edgeStyle=orthogonalEdgeStyle;rounded=0;orthogonalLoop=1;jettySize=auto;html=1;exitX=0.5;exitY=1;exitDx=0;exitDy=0;entryX=0.5;entryY=0;entryDx=0;entryDy=0;endArrow=open;endFill=0;endSize=8;" parent="RNL18w_joaWgRKOxXDmb-11" source="RNL18w_joaWgRKOxXDmb-60" target="RNL18w_joaWgRKOxXDmb-65" edge="1">
          <mxGeometry relative="1" as="geometry" />
        </mxCell>
        <mxCell id="RNL18w_joaWgRKOxXDmb-60" value="" style="rhombus;" parent="RNL18w_joaWgRKOxXDmb-11" vertex="1">
          <mxGeometry x="185" y="465" width="30" height="30" as="geometry" />
        </mxCell>
        <mxCell id="RNL18w_joaWgRKOxXDmb-64" value="[&amp;gt;= 1]" style="text;html=1;strokeColor=none;fillColor=none;align=center;verticalAlign=middle;whiteSpace=wrap;rounded=0;" parent="RNL18w_joaWgRKOxXDmb-11" vertex="1">
          <mxGeometry x="230" y="459" width="40" height="20" as="geometry" />
        </mxCell>
        <mxCell id="RNL18w_joaWgRKOxXDmb-65" value="Informar o usuário de que a equipe deve ter no mínimo 1 integrante" style="strokeColor=default;whiteSpace=wrap;rounded=1;glass=0;spacing=6;" parent="RNL18w_joaWgRKOxXDmb-11" vertex="1">
          <mxGeometry x="130" y="556" width="140" height="60" as="geometry" />
        </mxCell>
        <mxCell id="RNL18w_joaWgRKOxXDmb-67" value="[&amp;lt; 1]" style="text;html=1;strokeColor=none;fillColor=none;align=right;verticalAlign=middle;whiteSpace=wrap;rounded=0;" parent="RNL18w_joaWgRKOxXDmb-11" vertex="1">
          <mxGeometry x="159" y="504" width="40" height="20" as="geometry" />
        </mxCell>
        <mxCell id="RNL18w_joaWgRKOxXDmb-81" value="Informar o usuário de que já existe uma equipe com o nome informado" style="strokeColor=default;whiteSpace=wrap;rounded=1;glass=0;spacing=15;" parent="RNL18w_joaWgRKOxXDmb-11" vertex="1">
          <mxGeometry x="130" y="662" width="140" height="60" as="geometry" />
        </mxCell>
        <mxCell id="RNL18w_joaWgRKOxXDmb-91" style="edgeStyle=orthogonalEdgeStyle;rounded=0;orthogonalLoop=1;jettySize=auto;html=1;exitX=0.5;exitY=1;exitDx=0;exitDy=0;entryX=0.5;entryY=0;entryDx=0;entryDy=0;endArrow=open;endFill=0;endSize=8;" parent="RNL18w_joaWgRKOxXDmb-11" source="RNL18w_joaWgRKOxXDmb-88" target="RNL18w_joaWgRKOxXDmb-90" edge="1">
          <mxGeometry relative="1" as="geometry" />
        </mxCell>
        <mxCell id="RNL18w_joaWgRKOxXDmb-88" value="Informar o usuário de que a equipe foi criada" style="strokeColor=default;whiteSpace=wrap;rounded=1;glass=0;spacing=15;" parent="RNL18w_joaWgRKOxXDmb-11" vertex="1">
          <mxGeometry x="130" y="768" width="140" height="60" as="geometry" />
        </mxCell>
        <mxCell id="RNL18w_joaWgRKOxXDmb-90" value="" style="ellipse;html=1;shape=endState;fillColor=strokeColor;" parent="RNL18w_joaWgRKOxXDmb-11" vertex="1">
          <mxGeometry x="185" y="874" width="30" height="30" as="geometry" />
        </mxCell>
        <mxCell id="2T1-CQe3FMgKJFlutn8O-5" value="[A equipe foi criada]" style="text;html=1;strokeColor=none;fillColor=none;align=center;verticalAlign=middle;whiteSpace=wrap;rounded=0;" parent="RNL18w_joaWgRKOxXDmb-11" vertex="1">
          <mxGeometry x="145" y="909" width="110" height="20" as="geometry" />
        </mxCell>
        <mxCell id="Lqlkep9heBen3Izii-Fw-1" value="Exibir a tela de criação de equipe" style="strokeColor=default;whiteSpace=wrap;rounded=1;glass=0;spacing=7;" vertex="1" parent="RNL18w_joaWgRKOxXDmb-11">
          <mxGeometry x="130" y="132" width="140" height="60" as="geometry" />
        </mxCell>
        <mxCell id="Lqlkep9heBen3Izii-Fw-5" style="edgeStyle=none;curved=1;rounded=0;orthogonalLoop=1;jettySize=auto;html=1;exitX=0.5;exitY=1;exitDx=0;exitDy=0;entryX=0.5;entryY=0;entryDx=0;entryDy=0;fontSize=12;startSize=6;endSize=8;endArrow=open;endFill=0;" edge="1" parent="RNL18w_joaWgRKOxXDmb-11" source="Lqlkep9heBen3Izii-Fw-4" target="Lqlkep9heBen3Izii-Fw-1">
          <mxGeometry relative="1" as="geometry" />
        </mxCell>
        <mxCell id="Lqlkep9heBen3Izii-Fw-4" value="" style="ellipse;fillColor=strokeColor;html=1;" vertex="1" parent="RNL18w_joaWgRKOxXDmb-11">
          <mxGeometry x="185" y="56" width="30" height="30" as="geometry" />
        </mxCell>
        <mxCell id="RNL18w_joaWgRKOxXDmb-16" value="Back-end" style="swimlane;whiteSpace=wrap;spacing=5;swimlaneFillColor=#CCCCFF;fillColor=#CCCCFF;" parent="XuTa8PD4pBFg-ae1TVW1-6" vertex="1">
          <mxGeometry x="900" y="100" width="400" height="1000" as="geometry">
            <mxRectangle x="164.5" y="128" width="90" height="30" as="alternateBounds" />
          </mxGeometry>
        </mxCell>
        <mxCell id="RNL18w_joaWgRKOxXDmb-77" style="edgeStyle=orthogonalEdgeStyle;rounded=0;orthogonalLoop=1;jettySize=auto;html=1;exitX=0.5;exitY=1;exitDx=0;exitDy=0;entryX=0.5;entryY=0;entryDx=0;entryDy=0;endArrow=open;endFill=0;endSize=8;" parent="RNL18w_joaWgRKOxXDmb-16" source="RNL18w_joaWgRKOxXDmb-55" target="RNL18w_joaWgRKOxXDmb-76" edge="1">
          <mxGeometry relative="1" as="geometry" />
        </mxCell>
        <mxCell id="RNL18w_joaWgRKOxXDmb-55" value="Verificar se já existe uma equipe com o nome informado" style="strokeColor=default;whiteSpace=wrap;rounded=1;glass=0;spacing=5;" parent="RNL18w_joaWgRKOxXDmb-16" vertex="1">
          <mxGeometry x="78.5" y="450" width="140" height="60" as="geometry" />
        </mxCell>
        <mxCell id="2T1-CQe3FMgKJFlutn8O-3" style="edgeStyle=orthogonalEdgeStyle;rounded=0;orthogonalLoop=1;jettySize=auto;html=1;exitX=1;exitY=0.5;exitDx=0;exitDy=0;entryX=0.5;entryY=0;entryDx=0;entryDy=0;" parent="RNL18w_joaWgRKOxXDmb-16" source="RNL18w_joaWgRKOxXDmb-76" target="2T1-CQe3FMgKJFlutn8O-2" edge="1">
          <mxGeometry relative="1" as="geometry" />
        </mxCell>
        <mxCell id="RNL18w_joaWgRKOxXDmb-76" value="" style="rhombus;" parent="RNL18w_joaWgRKOxXDmb-16" vertex="1">
          <mxGeometry x="133.5" y="571" width="30" height="30" as="geometry" />
        </mxCell>
        <mxCell id="RNL18w_joaWgRKOxXDmb-82" value="[Não]" style="text;html=1;strokeColor=none;fillColor=none;align=center;verticalAlign=middle;whiteSpace=wrap;rounded=0;" parent="RNL18w_joaWgRKOxXDmb-16" vertex="1">
          <mxGeometry x="178.5" y="565" width="40" height="20" as="geometry" />
        </mxCell>
        <mxCell id="RNL18w_joaWgRKOxXDmb-83" value="[Sim]" style="text;html=1;strokeColor=none;fillColor=none;align=center;verticalAlign=middle;whiteSpace=wrap;rounded=0;" parent="RNL18w_joaWgRKOxXDmb-16" vertex="1">
          <mxGeometry x="111.5" y="618" width="40" height="20" as="geometry" />
        </mxCell>
        <mxCell id="2T1-CQe3FMgKJFlutn8O-2" value="Salvar equipe" style="strokeColor=default;whiteSpace=wrap;rounded=1;glass=0;spacing=5;" parent="RNL18w_joaWgRKOxXDmb-16" vertex="1">
          <mxGeometry x="181.5" y="662" width="140" height="60" as="geometry" />
        </mxCell>
        <mxCell id="RNL18w_joaWgRKOxXDmb-58" style="edgeStyle=orthogonalEdgeStyle;rounded=0;orthogonalLoop=1;jettySize=auto;html=1;exitX=1;exitY=0.5;exitDx=0;exitDy=0;entryX=0;entryY=0.5;entryDx=0;entryDy=0;endArrow=open;endFill=0;endSize=8;" parent="XuTa8PD4pBFg-ae1TVW1-6" source="RNL18w_joaWgRKOxXDmb-56" target="RNL18w_joaWgRKOxXDmb-53" edge="1">
          <mxGeometry relative="1" as="geometry" />
        </mxCell>
        <mxCell id="RNL18w_joaWgRKOxXDmb-63" style="edgeStyle=orthogonalEdgeStyle;rounded=0;orthogonalLoop=1;jettySize=auto;html=1;exitX=1;exitY=0.5;exitDx=0;exitDy=0;entryX=0;entryY=0.5;entryDx=0;entryDy=0;endSize=8;endArrow=open;endFill=0;" parent="XuTa8PD4pBFg-ae1TVW1-6" source="RNL18w_joaWgRKOxXDmb-60" target="RNL18w_joaWgRKOxXDmb-55" edge="1">
          <mxGeometry relative="1" as="geometry" />
        </mxCell>
        <mxCell id="RNL18w_joaWgRKOxXDmb-68" style="edgeStyle=orthogonalEdgeStyle;rounded=0;orthogonalLoop=1;jettySize=auto;html=1;exitX=0;exitY=0.5;exitDx=0;exitDy=0;entryX=0;entryY=0.5;entryDx=0;entryDy=0;endArrow=open;endFill=0;endSize=8;" parent="XuTa8PD4pBFg-ae1TVW1-6" source="RNL18w_joaWgRKOxXDmb-65" target="RNL18w_joaWgRKOxXDmb-23" edge="1">
          <mxGeometry relative="1" as="geometry">
            <Array as="points">
              <mxPoint x="182" y="686" />
              <mxPoint x="182" y="368" />
            </Array>
          </mxGeometry>
        </mxCell>
        <mxCell id="RNL18w_joaWgRKOxXDmb-80" style="edgeStyle=orthogonalEdgeStyle;rounded=0;orthogonalLoop=1;jettySize=auto;html=1;exitX=0.5;exitY=1;exitDx=0;exitDy=0;entryX=1;entryY=0.5;entryDx=0;entryDy=0;endArrow=open;endFill=0;endSize=8;" parent="XuTa8PD4pBFg-ae1TVW1-6" source="RNL18w_joaWgRKOxXDmb-76" target="RNL18w_joaWgRKOxXDmb-81" edge="1">
          <mxGeometry relative="1" as="geometry">
            <mxPoint x="1100" y="762" as="targetPoint" />
          </mxGeometry>
        </mxCell>
        <mxCell id="RNL18w_joaWgRKOxXDmb-84" style="edgeStyle=orthogonalEdgeStyle;rounded=0;orthogonalLoop=1;jettySize=auto;html=1;exitX=0;exitY=0.5;exitDx=0;exitDy=0;entryX=0;entryY=0.5;entryDx=0;entryDy=0;endArrow=open;endFill=0;endSize=8;" parent="XuTa8PD4pBFg-ae1TVW1-6" source="RNL18w_joaWgRKOxXDmb-81" target="RNL18w_joaWgRKOxXDmb-3" edge="1">
          <mxGeometry relative="1" as="geometry">
            <Array as="points">
              <mxPoint x="152" y="792" />
              <mxPoint x="152" y="262" />
            </Array>
          </mxGeometry>
        </mxCell>
        <mxCell id="2T1-CQe3FMgKJFlutn8O-4" style="edgeStyle=orthogonalEdgeStyle;rounded=0;orthogonalLoop=1;jettySize=auto;html=1;exitX=0.5;exitY=1;exitDx=0;exitDy=0;entryX=1;entryY=0.5;entryDx=0;entryDy=0;endArrow=open;endFill=0;endSize=8;" parent="XuTa8PD4pBFg-ae1TVW1-6" source="2T1-CQe3FMgKJFlutn8O-2" target="RNL18w_joaWgRKOxXDmb-88" edge="1">
          <mxGeometry relative="1" as="geometry" />
        </mxCell>
        <mxCell id="Lqlkep9heBen3Izii-Fw-6" style="edgeStyle=none;curved=1;rounded=0;orthogonalLoop=1;jettySize=auto;html=1;exitX=0;exitY=0.5;exitDx=0;exitDy=0;entryX=1;entryY=0.5;entryDx=0;entryDy=0;fontSize=12;startSize=6;endSize=8;endArrow=open;endFill=0;" edge="1" parent="XuTa8PD4pBFg-ae1TVW1-6" source="Lqlkep9heBen3Izii-Fw-1" target="RNL18w_joaWgRKOxXDmb-3">
          <mxGeometry relative="1" as="geometry" />
        </mxCell>
      </root>
    </mxGraphModel>
  </diagram>
</mxfile>
